# xmcd
#
# Track frame offsets:
#	150
#	14735
#	38814
#	56328
#	78790
#	95827
#	111788
#	134405
#	159170
#	182768
#	200213
#	218809
#
# Disc length: 3118 seconds
#
# Revision: 3
# Processed by: cddbd v1.5.2PL0 Copyright (c) Steve Scherf et al.
# Submitted via: audiograbber 1.83.01
#
DISCID=a40c2c0c
DTITLE=Tina Arena - Songs Of Love and Loss 2
DYEAR=2008
DGENRE=Easy Listening
TTITLE0=Oh Me Oh My
TTITLE1=Only Women Bleed
TTITLE2=Every Breath You Take
TTITLE3=Close To You
TTITLE4=Call Me
TTITLE5=Baby It's You
TTITLE6=Nights In White Satin
TTITLE7=I Hope I Never
TTITLE8=Both Sides Now
TTITLE9=Wouldn't It Be Good
TTITLE10=Your Song
TTITLE11=Living A Lifetime Together
EXTD=YEAR: 2008
EXTT0=
EXTT1=
EXTT2=
EXTT3=
EXTT4=
EXTT5=
EXTT6=
EXTT7=
EXTT8=
EXTT9=
EXTT10=
EXTT11=
PLAYORDER=
